<svg width="80" height="64" viewBox="0 0 80 64" fill="none" xmlns="http://www.w3.org/2000/svg">
<g clip-path="url(#clip0_1_73900)">
<rect width="80" height="64" fill="#DFF2FF"/>
<g clip-path="url(#clip1_1_73900)">
<path d="M24.6624 28.7482C22.5031 28.4027 20.5529 28.3711 18.5987 28.3975C18.2823 28.4022 17.964 28.347 17.6472 28.3055C17.5305 28.2904 17.3984 28.24 17.4036 28.0923C17.4083 27.9724 17.5309 27.9567 17.6244 27.9245C18.924 27.4624 20.2726 27.4009 21.6306 27.4384C23.9619 27.5041 26.2916 27.6122 28.6225 27.6243C29.4621 27.6288 30.1582 27.0539 30.787 26.5627C32.032 25.5918 33.4693 25.0055 34.8521 24.3049C35.2965 24.0795 35.7736 23.9186 36.1037 23.5165C36.1988 23.4005 36.3173 23.3391 36.4635 23.3282C37.8492 23.2298 38.9963 22.579 40.0472 21.736C41.471 20.5935 43.1042 19.9721 44.8862 19.6775C45.5237 19.5724 46.1176 19.3134 46.5963 18.8678C47.7357 17.808 49.0301 16.9845 50.453 16.3887C51.1283 16.1054 51.8773 15.9295 52.6122 15.9682C53.8492 16.0349 55.0644 16.2469 56.1744 16.8755C56.5684 17.098 56.8862 17.3906 57.1758 17.7179C57.6305 18.2308 58.2029 18.4534 58.8677 18.49C59.3507 18.5164 59.8145 18.6215 60.2632 18.8035C60.3925 18.8558 60.543 18.8967 60.546 19.0701C60.5486 19.2471 60.3961 19.2997 60.2636 19.3333C59.781 19.458 59.2996 19.5902 58.81 19.681C58.0843 19.8154 57.5242 20.1403 57.1439 20.8114C56.7402 21.5253 56.367 22.2547 55.9926 22.9839C55.5062 23.9325 55.5169 24.9596 55.5283 25.9734C55.5612 28.9025 54.3503 31.2535 52.1844 33.115C50.267 34.7618 48.1982 36.1885 45.7034 36.8545C45.5136 36.9051 45.2105 36.918 45.2024 37.1981C45.1968 37.4128 45.4451 37.4977 45.6063 37.6047C46.1716 37.9796 46.7073 38.439 47.3262 38.6831C48.3892 39.1 49.5073 39.3681 50.616 38.7542C50.9365 38.5771 51.2726 38.4255 51.6408 38.5284C51.8691 38.5932 52.0739 38.6605 51.8364 39.0206C51.3416 39.767 50.7428 40.1799 49.8128 40.2592C48.0291 40.4123 46.2461 40.6166 44.4856 40.9705C44.1187 41.0444 43.7319 41.0239 43.3544 41.0232C43.0097 41.0225 42.8283 40.888 42.9698 40.4964C43.1196 40.0817 42.9699 39.8985 42.512 39.9392C41.968 39.9877 41.39 40.3184 40.8956 39.763C40.8114 39.6687 40.6265 39.7761 40.5159 39.8654C39.8768 40.3843 39.1958 40.7544 38.3341 40.5091C38.298 40.4988 38.255 40.5106 38.2163 40.5096C38.0594 40.5031 37.9491 40.8969 37.8042 40.6254C37.6792 40.3911 37.7134 40.0747 37.9578 39.8545C38.2079 39.629 38.5158 39.5597 38.8361 39.5129C39.0907 39.4756 39.3546 39.4484 39.5929 39.3576C39.9406 39.226 40.075 39.0184 39.8649 38.6154C39.379 37.68 38.6824 36.9102 38.0079 36.1231C37.7405 35.8101 37.3226 35.7143 36.9493 35.5887C35.8768 35.2277 35.1722 34.3252 34.2309 33.778C33.1577 33.155 32.1658 32.4516 31.3104 31.5264C30.9219 31.1063 30.2396 31.017 29.6674 30.8652C28.8639 30.653 28.0832 30.3699 27.4505 29.8533C26.557 29.1258 25.5751 28.743 24.6634 28.7496L24.6624 28.7482ZM41.8869 38.5895C42.6921 38.5888 43.5032 38.8314 44.2981 38.4553C44.7609 38.2363 44.7712 38.1916 44.3937 37.8194C43.8013 37.237 42.0165 37.357 41.28 37.8698C41.1065 37.9898 41.1317 38.1373 41.2564 38.2766C41.4239 38.4626 41.6439 38.5505 41.8857 38.5893L41.8869 38.5895Z" fill="#144650"/>
</g>
<g clip-path="url(#clip2_1_73900)">
<path fill-rule="evenodd" clip-rule="evenodd" d="M46.9942 47.8079C46.5422 48.0578 44.2254 48.3078 43.5303 48.3193C42.2197 48.3422 40.9773 48.1519 39.6599 48.2459C38.4538 48.333 37.3749 48.638 36.1279 48.755C34.865 48.8742 33.568 48.9453 32.2869 48.9476C30.354 48.9476 26.5607 48.8742 25.3046 47.8629C24.6232 47.3148 24.7709 47.6634 23.9827 47.1657C22.32 46.1131 22.3382 44.0377 23.4739 43.2694C23.3376 43.1318 22.6426 42.9461 22.4381 42.8841C22.0815 42.7786 21.6727 42.6663 21.3183 42.5745C19.9237 42.2099 18.0475 41.8797 16.5484 41.5357L14.2429 40.9601C11.4355 40.2239 8.55764 40.6505 6.81548 43.008C6.6951 43.1708 6.6315 43.352 6.48613 43.4047C6.22037 43.501 6.2022 43.3726 6.00232 43.6249C6.94041 44.4826 9.18227 44.5835 10.5724 44.6362C10.8268 44.6454 11.1697 44.7853 11.4787 44.8449C12.1964 44.9871 14.1771 45.1385 14.4383 45.2394C15.9329 45.8219 18.7767 46.9937 20.0486 47.6015C21.3274 48.2115 21.8022 48.4706 23.4307 48.7206C24.705 48.9155 25.8589 49.2916 27.015 49.6815C29.291 50.4452 31.5714 51.1538 33.8383 51.9037C34.8854 52.25 35.217 52.954 36.4799 53.7681C37.9041 54.6855 38.2743 54.5456 40.1755 54.3896C42.8944 54.1672 45.6359 53.8186 48.3298 53.5067C51.7778 53.11 53.3587 52.9586 56.9429 53.1214C59.7617 53.2499 62.2262 53.5136 64.7543 54.3277C69.3766 55.8207 73.1653 58.0429 76.8222 60.3201C77.7603 60.9049 78.6416 61.4828 79.5888 62.0584C82.5461 63.8564 85.3604 65.2347 88.4404 66.8193C90.4483 67.8513 92.4471 68.8076 94.5096 69.8029L96.7901 70.8853C97.2034 71.094 97.1875 70.9794 97.5442 70.7546C102.001 67.9453 103.132 59.1024 102.993 53.4746L99.7224 52.6651C92.6425 50.7983 84.8516 48.028 78.1896 45.2944C74.3146 43.7051 70.3624 42.0608 66.769 40.2102C64.9405 39.2699 63.1643 38.3755 61.1859 37.566C58.2831 36.3803 57.8197 36.1762 54.6806 37.2678C53.5381 37.6646 52.5137 37.8412 51.2213 37.8664C48.2435 37.9283 47.1918 38.0911 44.4389 39.3754C41.4929 40.7491 37.4566 41.5059 34.1472 41.4554C32.2529 41.4256 32.2937 41.3201 30.2268 41.5265C29.0229 41.6458 27.8441 41.8797 26.8219 42.2627C26.3109 42.4553 25.8884 42.6846 25.5204 42.9805C25.1116 43.3084 24.7005 43.5309 24.4006 43.9345C23.6193 44.9917 23.7556 46.1819 24.8549 46.7002C25.1411 46.8355 25.3228 46.8561 25.6385 46.9479C26.0542 47.0694 25.977 47.4822 27.9099 47.7826C29.4295 48.0188 34.2812 48.1358 35.7917 47.9294C37.0069 47.762 38.0631 47.4822 39.3578 47.3607C40.5957 47.246 42.0562 47.1795 43.2805 47.3607C44.959 47.606 44.9931 47.7689 46.9988 47.8033" fill="#AAAAAA"/>
<path fill-rule="evenodd" clip-rule="evenodd" d="M6.96079 35.9171C6.8336 35.9308 6.70413 35.9423 6.5792 35.9606L6.34752 36.0134C6.24303 36.057 6.28619 36.0294 6.23395 36.0753C7.20383 37.1233 8.74838 37.6967 10.1476 38.1118C10.4678 38.2081 10.4065 38.2883 10.6745 38.4672C11.3151 38.8915 12.2895 39.1139 13.0209 39.5336C14.6154 40.4486 13.1844 40.084 15.5671 40.4509C18.4313 40.8912 21.1048 41.6274 23.8577 42.3911C24.6595 42.6135 24.4687 42.7052 25.107 42.3154C25.4681 42.0952 25.8656 41.8865 26.2495 41.6962C25.5522 41.3109 24.53 41.7122 21.3501 39.3501C19.9396 38.3021 18.5108 37.5407 16.7937 36.6624C16.3144 36.417 16.0237 36.284 15.6284 36.0157C14.679 35.369 13.0822 34.5457 12.0056 34.2086C9.716 33.493 7.68083 34.1191 6.95852 35.9148" fill="#AAAAAA"/>
<path fill-rule="evenodd" clip-rule="evenodd" d="M21.0435 33.4174C21.1093 33.7247 21.9702 34.6833 22.1519 34.8507L24.6754 37.4054C25.45 38.2654 30.0813 39.6322 31.7236 40.4968C32.2823 40.7903 33.4044 40.694 34.0676 40.6275C34.0608 40.616 33.3703 40.1643 33.2976 40.1046C33.0614 39.9143 32.8615 39.6551 32.6253 39.4304C32.1619 38.9901 31.6441 38.669 31.0626 38.3021C29.1705 37.105 29.7293 37.6531 28.0666 35.8597C27.4056 35.1465 26.1609 33.9127 25.1683 33.3692C24.5573 33.0344 23.7419 32.867 22.9719 33.1307C22.4018 33.3256 22.6493 33.4839 22.0883 33.2523C21.6295 33.0619 21.2706 33.0963 21.0435 33.4197" fill="#AAAAAA"/>
<path fill-rule="evenodd" clip-rule="evenodd" d="M30.3516 40.6183C30.204 40.4853 28.4618 39.9166 28.2506 39.834C25.6635 38.8365 24.7663 38.1714 22.4676 37.0798C21.8112 36.7702 21.1638 36.4927 20.5165 36.1831C19.8305 35.8552 19.2922 35.5479 18.6448 35.2085C17.4546 34.587 15.7261 33.9334 14.1225 34.0412C14.2883 34.2636 17.332 35.9515 17.868 36.2565C19.667 37.2816 19.91 37.1761 21.6703 38.4558C22.9696 39.4006 23.6487 39.9648 25.509 40.5679C25.902 40.6963 26.2631 40.8202 26.6447 40.9302C27.0967 41.0632 27.3647 41.2261 27.8031 41.0816C28.6186 40.811 29.4635 40.6688 30.3539 40.6161" fill="#AAAAAA"/>
</g>
</g>
<defs>
<clipPath id="clip0_1_73900">
<rect width="80" height="64" fill="white"/>
</clipPath>
<clipPath id="clip1_1_73900">
<rect width="41.3238" height="26.7207" fill="white" transform="translate(19.975 11) rotate(8.55516)"/>
</clipPath>
<clipPath id="clip2_1_73900">
<rect width="97" height="38" fill="white" transform="translate(6 33)"/>
</clipPath>
</defs>
</svg>
