<svg width="40" height="40" viewBox="0 0 40 40" fill="none" xmlns="http://www.w3.org/2000/svg">
<g id=".MasterPictogram">
<path id="Vector" d="M20 40C31.0457 40 40 31.0457 40 20C40 8.9543 31.0457 0 20 0C8.9543 0 0 8.9543 0 20C0 31.0457 8.9543 40 20 40Z" fill="#55CFCF"/>
<path id="Information" d="M19.66 7.58982C20.0279 7.55504 20.399 7.59969 20.7481 7.72075C21.0973 7.84181 21.4163 8.03645 21.6837 8.29151C21.9511 8.54657 22.1606 8.85609 22.2979 9.19913C22.4353 9.54216 22.4974 9.91071 22.48 10.2798C22.4914 10.646 22.4249 11.0105 22.285 11.3491C22.1451 11.6877 21.935 11.9928 21.6685 12.2442C21.4019 12.4956 21.0851 12.6876 20.7389 12.8075C20.3927 12.9275 20.025 12.9725 19.66 12.9398C19.2944 12.9759 18.9253 12.9331 18.5777 12.8144C18.23 12.6957 17.9118 12.5038 17.6445 12.2517C17.3773 11.9997 17.1672 11.6932 17.0284 11.353C16.8896 11.0129 16.8254 10.6469 16.84 10.2798C16.8192 9.90984 16.879 9.53975 17.0152 9.19513C17.1515 8.8505 17.3609 8.53956 17.629 8.28379C17.8971 8.02801 18.2176 7.83349 18.5683 7.71368C18.9189 7.59386 19.2914 7.5516 19.66 7.58982ZM22.2 14.9998V31.6698H17.11V14.9998H22.2Z" fill="#144650"/>
</g>
</svg>
