<svg width="16" height="16" viewBox="0 0 16 16" fill="none" xmlns="http://www.w3.org/2000/svg">
<path d="M3.52905 8.81434L3.56007 8.85161L3.65934 9.00072L7.48129 14.4988C7.57547 14.6242 7.71353 14.7092 7.86774 14.7369C8.02196 14.7646 8.18091 14.7328 8.31269 14.6479C8.37265 14.6098 8.42349 14.5589 8.4616 14.4988L12.2773 9.00072L12.3828 8.85783V8.82055C12.8975 8.02215 13.1877 7.09961 13.223 6.15C13.2583 5.20039 13.0373 4.25882 12.5833 3.42434C12.1293 2.58986 11.459 1.89334 10.6431 1.40804C9.82714 0.922747 8.89566 0.666626 7.94663 0.666626C6.99759 0.666626 6.06611 0.922747 5.25017 1.40804C4.43423 1.89334 3.764 2.58986 3.30999 3.42434C2.85599 4.25882 2.635 5.20039 2.67027 6.15C2.70555 7.09961 2.99578 8.02215 3.51043 8.82055L3.52905 8.81434ZM7.97144 3.75111C8.40707 3.75111 8.83292 3.88046 9.19513 4.1228C9.55735 4.36514 9.83966 4.70958 10.0064 5.11258C10.1731 5.51557 10.2167 5.95901 10.1317 6.38683C10.0467 6.81465 9.83694 7.20762 9.52891 7.51606C9.22087 7.8245 8.82841 8.03455 8.40115 8.11965C7.97389 8.20474 7.53102 8.16107 7.12855 7.99414C6.72608 7.82722 6.38208 7.54454 6.14006 7.18185C5.89804 6.81917 5.76886 6.39277 5.76886 5.95657C5.76886 5.66694 5.82583 5.38016 5.93652 5.11258C6.04721 4.845 6.20945 4.60187 6.41398 4.39708C6.61851 4.19228 6.86132 4.02983 7.12855 3.91899C7.39578 3.80816 7.6822 3.75111 7.97144 3.75111Z" fill="#144650"/>
</svg>
